<svg width="20" height="16" viewBox="0 0 20 16" fill="none" xmlns="http://www.w3.org/2000/svg">
<path d="M0.902673 6.94993L0.902661 6.94994C0.365789 7.50995 0.365765 8.40952 0.902678 8.96952L6.75267 15.0711C6.75267 15.0711 6.75268 15.0711 6.75268 15.0711C7.30097 15.643 8.19899 15.643 8.74729 15.0711L8.74731 15.0711L19.0973 4.27602L19.0973 4.276C19.6342 3.71599 19.6342 2.81642 19.0973 2.25643L17.8246 0.928897L17.8246 0.928892C17.2763 0.357036 16.3782 0.357036 15.8299 0.928891L7.75 9.35623L4.17009 5.62241C4.17008 5.62241 4.17007 5.6224 4.17007 5.62239C3.62178 5.0505 2.7237 5.0505 2.17542 5.62241L0.902673 6.94993Z" stroke="#9F99FF"/>
</svg>
