<svg width="10" height="11" viewBox="0 0 10 11" fill="none" xmlns="http://www.w3.org/2000/svg">
<g clip-path="url(#clip0)">
<path d="M8.4375 6.875H7.8125C7.72962 6.875 7.65013 6.91122 7.59153 6.97568C7.53292 7.04015 7.5 7.12758 7.5 7.21875V9.625H1.25V2.75H4.0625C4.14538 2.75 4.22487 2.71378 4.28347 2.64932C4.34208 2.58485 4.375 2.49742 4.375 2.40625V1.71875C4.375 1.62758 4.34208 1.54015 4.28347 1.47568C4.22487 1.41122 4.14538 1.375 4.0625 1.375H0.9375C0.68886 1.375 0.450403 1.48365 0.274587 1.67705C0.098772 1.87044 0 2.13275 0 2.40625L0 9.96875C0 10.2423 0.098772 10.5046 0.274587 10.698C0.450403 10.8914 0.68886 11 0.9375 11H7.8125C8.06114 11 8.2996 10.8914 8.47541 10.698C8.65123 10.5046 8.75 10.2423 8.75 9.96875V7.21875C8.75 7.12758 8.71708 7.04015 8.65847 6.97568C8.59987 6.91122 8.52038 6.875 8.4375 6.875ZM9.53125 0H7.03125C6.61387 0 6.40527 0.55666 6.69922 0.880859L7.39707 1.6485L2.63672 6.88295C2.59302 6.93085 2.55835 6.98777 2.53469 7.05045C2.51103 7.11312 2.49885 7.18032 2.49885 7.24818C2.49885 7.31605 2.51103 7.38324 2.53469 7.44592C2.55835 7.50859 2.59302 7.56551 2.63672 7.61342L3.07949 8.09961C3.12304 8.14768 3.17479 8.18582 3.23176 8.21185C3.28874 8.23787 3.34983 8.25127 3.41152 8.25127C3.47322 8.25127 3.5343 8.23787 3.59128 8.21185C3.64826 8.18582 3.70001 8.14768 3.74355 8.09961L8.50156 2.8643L9.19922 3.63086C9.49219 3.95312 10 3.72754 10 3.26562V0.515625C10 0.378873 9.95061 0.247722 9.86271 0.151023C9.7748 0.0543246 9.65557 0 9.53125 0V0Z" fill="black"/>
</g>
<defs>
<clipPath id="clip0">
<rect width="10" height="11" fill="white"/>
</clipPath>
</defs>
</svg>
