<svg width="10" height="11" viewBox="0 0 10 11" fill="none" xmlns="http://www.w3.org/2000/svg">
<path d="M5 6.1875C6.55273 6.1875 7.8125 4.80176 7.8125 3.09375C7.8125 1.38574 6.55273 0 5 0C3.44727 0 2.1875 1.38574 2.1875 3.09375C2.1875 4.80176 3.44727 6.1875 5 6.1875ZM7.5 6.875H6.42383C5.99023 7.09414 5.50781 7.21875 5 7.21875C4.49219 7.21875 4.01172 7.09414 3.57617 6.875H2.5C1.11914 6.875 0 8.10605 0 9.625V9.96875C0 10.5381 0.419922 11 0.9375 11H9.0625C9.58008 11 10 10.5381 10 9.96875V9.625C10 8.10605 8.88086 6.875 7.5 6.875Z" fill="black"/>
</svg>
