<svg width="296" height="248" viewBox="0 0 296 248" fill="none" xmlns="http://www.w3.org/2000/svg">
<circle cx="99" cy="168" r="55" fill="#FFAEAE"/>
<path d="M265.618 226.766L242.843 210.593C250.524 203.081 257.511 192.384 264.192 180.289L286.967 196.462C277.866 206.839 270.157 217.022 265.618 226.766Z" fill="#9F99FF"/>
<path d="M265.624 209.547C269.337 209.547 272.346 206.526 272.346 202.799C272.346 199.071 269.337 196.05 265.624 196.05C261.912 196.05 258.903 199.071 258.903 202.799C258.903 206.526 261.912 209.547 265.624 209.547Z" fill="white"/>
<path d="M155.754 152.966H153.254C153.166 152.966 153.082 153.001 153.02 153.064C152.958 153.126 152.923 153.211 152.923 153.299V154.401C152.923 154.444 152.931 154.488 152.948 154.528C152.964 154.568 152.989 154.605 153.02 154.636C153.05 154.667 153.087 154.691 153.127 154.708C153.167 154.725 153.211 154.733 153.254 154.733H153.668V156.384H155.34V154.733H155.754C155.842 154.733 155.926 154.698 155.988 154.636C156.051 154.574 156.086 154.489 156.086 154.401V153.299C156.086 153.211 156.051 153.126 155.988 153.064C155.926 153.001 155.842 152.966 155.754 152.966V152.966Z" fill="#E6E6E6"/>
<path d="M158.258 163.049C156.727 160.8 155.944 158.122 156.022 155.398C156.024 155.335 156.003 155.274 155.965 155.225C155.926 155.175 155.872 155.14 155.811 155.127V154.651H153.17V155.12H153.134C153.098 155.12 153.063 155.127 153.03 155.141C152.997 155.155 152.968 155.175 152.942 155.2C152.917 155.225 152.897 155.255 152.884 155.288C152.87 155.321 152.863 155.357 152.863 155.392C152.863 155.399 152.864 155.406 152.864 155.412C153.108 158.191 152.361 160.966 150.757 163.244C150.664 163.377 150.617 163.536 150.622 163.698L150.91 172.665C150.917 172.865 151.001 173.054 151.144 173.194C151.287 173.333 151.478 173.412 151.677 173.414H157.649C157.851 173.412 158.044 173.331 158.187 173.189C158.33 173.047 158.412 172.854 158.416 172.651L158.527 163.946C158.53 163.626 158.437 163.314 158.258 163.049V163.049Z" fill="#9F99FF"/>
<path opacity="0.2" d="M155.233 153.325C155.233 153.516 155.158 153.698 155.023 153.833C154.889 153.968 154.707 154.043 154.518 154.043C154.328 154.043 154.146 153.968 154.012 153.833C153.878 153.698 153.803 153.516 153.803 153.325" fill="black"/>
<path d="M157.095 164.776H152.054V168.151H157.095V164.776Z" fill="white"/>
<path d="M234.867 187.993H230.188C230.023 187.993 229.865 188.059 229.749 188.176C229.633 188.292 229.567 188.451 229.567 188.616V190.678C229.567 190.844 229.633 191.002 229.749 191.119C229.865 191.236 230.023 191.301 230.188 191.301H230.963V194.391H234.092V191.301H234.867C235.032 191.301 235.19 191.236 235.306 191.119C235.423 191.002 235.488 190.844 235.488 190.678V188.616C235.488 188.451 235.423 188.292 235.306 188.176C235.19 188.059 235.032 187.993 234.867 187.993V187.993Z" fill="#E6E6E6"/>
<path d="M239.555 206.867C236.689 202.656 235.223 197.643 235.369 192.546C235.372 192.428 235.334 192.313 235.261 192.22C235.189 192.128 235.087 192.063 234.973 192.037V191.146H230.031V192.025H229.962C229.896 192.025 229.83 192.038 229.768 192.064C229.707 192.09 229.651 192.127 229.604 192.174C229.557 192.222 229.52 192.278 229.494 192.34C229.469 192.402 229.456 192.468 229.456 192.535C229.456 192.547 229.456 192.559 229.457 192.572C229.847 198.021 228.532 202.908 225.513 207.232C225.339 207.481 225.25 207.779 225.26 208.083L225.8 224.866C225.813 225.241 225.97 225.596 226.237 225.857C226.505 226.118 226.862 226.266 227.235 226.269H238.414C238.792 226.266 239.153 226.115 239.421 225.848C239.689 225.582 239.843 225.221 239.85 224.842L240.058 208.546C240.064 207.948 239.889 207.362 239.555 206.867V206.867Z" fill="#9F99FF"/>
<path opacity="0.2" d="M233.892 188.665C233.892 189.022 233.751 189.363 233.5 189.615C233.249 189.867 232.908 190.009 232.553 190.009C232.198 190.009 231.858 189.867 231.607 189.615C231.356 189.363 231.215 189.022 231.215 188.665" fill="black"/>
<path d="M237.785 212.442H228.055C227.911 212.442 227.768 212.473 227.637 212.534C227.506 212.594 227.39 212.682 227.296 212.792C227.203 212.902 227.134 213.031 227.094 213.17C227.054 213.309 227.045 213.455 227.067 213.598L228.538 223.193H236.981L238.767 213.63C238.794 213.485 238.789 213.336 238.752 213.193C238.715 213.051 238.648 212.918 238.554 212.804C238.46 212.691 238.343 212.6 238.21 212.537C238.077 212.474 237.932 212.442 237.785 212.442V212.442Z" fill="white"/>
<path d="M221.515 226.739H193.619C195.57 216.153 195.121 203.369 193.619 189.622H221.515C220.054 203.37 219.617 216.153 221.515 226.739Z" fill="#9F99FF"/>
<path d="M207.735 213.917C211.448 213.917 214.457 210.896 214.457 207.168C214.457 203.441 211.448 200.42 207.735 200.42C204.023 200.42 201.014 203.441 201.014 207.168C201.014 210.896 204.023 213.917 207.735 213.917Z" fill="white"/>
<path d="M107.414 109.925L113.677 109.353L117.662 99.6366L110.546 95.6354L107.414 109.925Z" fill="#FFB8B8"/>
<path d="M164.887 136.6C165.095 136.079 165.177 135.515 165.125 134.956C165.074 134.396 164.891 133.857 164.592 133.383C164.292 132.908 163.885 132.512 163.403 132.227C162.921 131.941 162.378 131.775 161.819 131.742L152.096 131.16L150.665 135.939L160.674 138.699C161.511 138.93 162.402 138.843 163.179 138.456C163.956 138.069 164.564 137.408 164.887 136.6V136.6Z" fill="#FFB8B8"/>
<path d="M154.446 138.78L154.339 129.811L132.742 126.351L116.103 107.192C115.237 106.196 114.041 105.548 112.736 105.368C111.431 105.189 110.105 105.491 109.005 106.218C108.339 106.658 107.777 107.24 107.359 107.922C106.941 108.604 106.678 109.37 106.587 110.165C106.497 110.961 106.582 111.767 106.835 112.526C107.089 113.285 107.506 113.979 108.056 114.558L121.783 131.518L154.446 138.78Z" fill="#575A89"/>
<path d="M102.575 239.673H108.268L122.389 175.574L137.018 195.376L145.558 238.244H150.967L149.828 192.232L130.756 143.076H111.969C106.835 152.405 102.807 162.021 107.414 171.941L102.575 239.673Z" fill="#2F2E41"/>
<path d="M142.068 243.566C142.005 243.769 141.986 243.982 142.012 244.192C142.037 244.403 142.107 244.605 142.217 244.786C142.326 244.967 142.473 245.123 142.647 245.242C142.821 245.362 143.019 245.443 143.227 245.48L157.158 247.962C157.708 248.063 158.277 247.959 158.756 247.668C159.235 247.378 159.591 246.921 159.758 246.385V246.385C159.92 245.872 159.898 245.319 159.694 244.822C159.49 244.324 159.119 243.915 158.644 243.665C155.581 242.086 152.945 239.785 150.961 236.959C149.43 238.391 147.719 238.256 145.902 237.201L143.974 237.443L142.068 243.566Z" fill="#2F2E41"/>
<path d="M99.9392 243.566C99.8763 243.769 99.857 243.982 99.8826 244.192C99.9082 244.403 99.9781 244.605 100.088 244.786C100.197 244.967 100.344 245.123 100.518 245.242C100.692 245.362 100.89 245.443 101.098 245.48L115.029 247.962C115.579 248.063 116.148 247.959 116.627 247.668C117.106 247.378 117.462 246.921 117.629 246.385V246.385C117.791 245.872 117.769 245.319 117.565 244.822C117.361 244.324 116.99 243.915 116.515 243.665C113.452 242.086 110.816 239.785 108.832 236.959C107.301 238.391 105.59 238.256 103.773 237.201L101.845 237.443L99.9392 243.566Z" fill="#2F2E41"/>
<path d="M117.804 103.209C122.206 103.209 125.775 99.6262 125.775 95.2067C125.775 90.7873 122.206 87.2047 117.804 87.2047C113.402 87.2047 109.834 90.7873 109.834 95.2067C109.834 99.6262 113.402 103.209 117.804 103.209Z" fill="#FFB8B8"/>
<path d="M110.688 145.22L131.468 144.648L125.365 125.365C129.158 119.261 125.341 113.163 119.939 107.067L115.669 104.209L108.838 103.638C105.88 106.815 104.261 111.019 104.321 115.368C104.456 124.68 106.099 134.818 110.688 145.22Z" fill="#575A89"/>
<path d="M158.431 158.199C158.826 157.802 159.122 157.317 159.294 156.782C159.466 156.247 159.509 155.68 159.42 155.125C159.33 154.571 159.111 154.045 158.78 153.593C158.448 153.14 158.014 152.773 157.514 152.522L148.803 148.146L145.614 151.975L153.735 158.466C154.414 159.008 155.267 159.281 156.133 159.232C156.999 159.183 157.817 158.815 158.431 158.199V158.199Z" fill="#FFB8B8"/>
<path d="M147.978 156.08L151.394 147.792L132.893 136.081L125.103 111.896C124.698 110.637 123.852 109.569 122.722 108.889C121.592 108.209 120.255 107.963 118.959 108.196V108.196C118.174 108.338 117.429 108.651 116.778 109.113C116.127 109.575 115.584 110.175 115.19 110.871C114.795 111.566 114.557 112.34 114.493 113.139C114.428 113.937 114.54 114.739 114.819 115.489L120.793 136.503L147.978 156.08Z" fill="#575A89"/>
<path d="M104.71 92.0631C104.71 95.1767 106.724 99.9987 109.265 102.066C110.974 103.456 113.233 103.398 114.104 101.494C114.997 99.5412 118.077 94.9507 123.497 92.0631C130.723 88.2136 120.935 81.6278 114.104 82.632C108.97 83.3866 104.71 86.8545 104.71 92.0631Z" fill="#2F2E41"/>
<path d="M109.549 87.7762C112.693 87.7762 115.242 85.2172 115.242 82.0604C115.242 78.9037 112.693 76.3447 109.549 76.3447C106.405 76.3447 103.856 78.9037 103.856 82.0604C103.856 85.2172 106.405 87.7762 109.549 87.7762Z" fill="#2F2E41"/>
<path d="M116.096 80.06C116.096 78.619 115.553 77.2314 114.576 76.1754C113.6 75.1195 112.262 74.4731 110.83 74.3658C110.972 74.3553 111.113 74.3442 111.257 74.3442C112.767 74.3442 114.215 74.9464 115.283 76.0183C116.35 77.0902 116.95 78.544 116.95 80.06C116.95 81.5759 116.35 83.0297 115.283 84.1016C114.215 85.1735 112.767 85.7757 111.257 85.7757C111.113 85.7757 110.972 85.7646 110.83 85.7541C112.261 85.6468 113.6 85.0004 114.576 83.9445C115.553 82.8885 116.096 81.5009 116.096 80.06Z" fill="#2F2E41"/>
<path d="M117.947 98.0647C118.654 98.0647 119.228 97.2969 119.228 96.3499C119.228 95.4029 118.654 94.6352 117.947 94.6352C117.239 94.6352 116.666 95.4029 116.666 96.3499C116.666 97.2969 117.239 98.0647 117.947 98.0647Z" fill="#FFB8B8"/>
<path d="M279.25 229.191H190.626L171.859 140.121H155.843V136.124H175.086L193.853 225.194H279.25V229.191Z" fill="#3F3D56"/>
<path d="M203.614 245.463C208.325 245.463 212.144 241.629 212.144 236.899C212.144 232.169 208.325 228.334 203.614 228.334C198.902 228.334 195.083 232.169 195.083 236.899C195.083 241.629 198.902 245.463 203.614 245.463Z" fill="#3F3D56"/>
<path d="M267.308 245.463C272.019 245.463 275.838 241.629 275.838 236.899C275.838 232.169 272.019 228.334 267.308 228.334C262.597 228.334 258.777 232.169 258.777 236.899C258.777 241.629 262.597 245.463 267.308 245.463Z" fill="#3F3D56"/>
<path d="M277.635 227.309H191.408L176.195 151.825H291.912C292.502 151.825 293.086 151.954 293.622 152.202C294.158 152.45 294.635 152.812 295.018 153.262C295.402 153.713 295.684 154.241 295.845 154.812C296.006 155.382 296.042 155.981 295.95 156.566L281.673 223.842C281.525 224.81 281.036 225.692 280.295 226.329C279.554 226.965 278.61 227.313 277.635 227.309V227.309ZM192.345 226.167H277.635C278.338 226.17 279.02 225.919 279.555 225.459C280.09 225 280.442 224.363 280.549 223.664L294.826 156.389C294.893 155.966 294.867 155.534 294.751 155.123C294.635 154.711 294.431 154.329 294.154 154.004C293.877 153.679 293.533 153.418 293.146 153.239C292.759 153.06 292.338 152.967 291.912 152.967H177.575L192.345 226.167Z" fill="#3F3D56"/>
<path d="M208.171 227.067L198.208 152.489L199.33 152.303L209.293 226.881L208.171 227.067Z" fill="#3F3D56"/>
<path d="M263.571 226.495L262.448 226.312L272.12 152.305L273.243 152.488L263.571 226.495Z" fill="#3F3D56"/>
<path d="M237.176 152.396H236.038V226.974H237.176V152.396Z" fill="#3F3D56"/>
<path d="M182.005 172.38L182.002 173.522L292.1 173.79L292.103 172.648L182.005 172.38Z" fill="#3F3D56"/>
<path d="M284.333 207.655L187.61 208.319L187.618 209.461L284.341 208.797L284.333 207.655Z" fill="#3F3D56"/>
<path d="M157.549 140.977C161.004 140.977 163.805 139.443 163.805 137.551C163.805 135.659 161.004 134.125 157.549 134.125C154.094 134.125 151.293 135.659 151.293 137.551C151.293 139.443 154.094 140.977 157.549 140.977Z" fill="#3F3D56"/>
</svg>
